<svg id="visual" viewBox="0 0 900 600" width="900" height="600" xmlns="http://www.w3.org/2000/svg" xmlns:xlink="http://www.w3.org/1999/xlink" version="1.1"><rect x="0" y="0" width="900" height="600" fill="#001220"></rect><defs><linearGradient id="grad1_0" x1="33.3%" y1="0%" x2="100%" y2="100%"><stop offset="20%" stop-color="#001220" stop-opacity="1"></stop><stop offset="80%" stop-color="#001220" stop-opacity="1"></stop></linearGradient></defs><defs><linearGradient id="grad2_0" x1="0%" y1="0%" x2="66.7%" y2="100%"><stop offset="20%" stop-color="#001220" stop-opacity="1"></stop><stop offset="80%" stop-color="#001220" stop-opacity="1"></stop></linearGradient></defs><g transform="translate(900, 0)"><path d="M0 486.7C-58 471.4 -116.1 456.1 -181 437C-245.9 417.9 -317.8 395.1 -344.2 344.2C-370.6 293.3 -351.5 214.3 -367.7 152.3C-383.9 90.3 -435.3 45.1 -486.7 0L0 0Z" fill="#FBAE3C"></path></g><g transform="translate(0, 600)"><path d="M0 -486.7C67 -484.5 134 -482.2 186.3 -449.7C238.6 -417.2 276.1 -354.5 299.8 -299.8C323.5 -245.2 333.3 -198.6 362.2 -150C391 -101.4 438.9 -50.7 486.7 0L0 0Z" fill="#FBAE3C"></path></g></svg>