<svg id="visual" viewBox="0 0 900 600" width="900" height="600" xmlns="http://www.w3.org/2000/svg" xmlns:xlink="http://www.w3.org/1999/xlink" version="1.1"><rect x="0" y="0" width="900" height="600" fill="#6e6e6e"></rect><defs><linearGradient id="grad1_0" x1="33.3%" y1="0%" x2="100%" y2="100%"><stop offset="20%" stop-color="#6e6e6e" stop-opacity="1"></stop><stop offset="80%" stop-color="#6e6e6e" stop-opacity="1"></stop></linearGradient></defs><defs><linearGradient id="grad2_0" x1="0%" y1="0%" x2="66.7%" y2="100%"><stop offset="20%" stop-color="#6e6e6e" stop-opacity="1"></stop><stop offset="80%" stop-color="#6e6e6e" stop-opacity="1"></stop></linearGradient></defs><g transform="translate(900, 0)"><path d="M0 486.7C-69.6 480.1 -139.2 473.5 -179.5 433.3C-219.7 393.1 -230.6 319.4 -277.9 277.9C-325.2 236.4 -408.8 227.2 -449.7 186.3C-490.6 145.3 -488.7 72.7 -486.7 0L0 0Z" fill="#ffffff"></path></g><g transform="translate(0, 600)"><path d="M0 -486.7C60.9 -467.9 121.8 -449.1 174.9 -422.2C228 -395.3 273.3 -360.4 321.7 -321.7C370.2 -283 421.7 -240.5 449.7 -186.3C477.7 -132 482.2 -66 486.7 0L0 0Z" fill="#ffffff"></path></g></svg>